<svg width="869" height="211" viewBox="0 0 869 211" fill="none" xmlns="http://www.w3.org/2000/svg">
<path d="M86.88 34.56C79.84 34.56 73.36 35.92 67.44 38.64C61.52 41.2 56.32 44.8 51.84 49.44C47.52 53.92 44.08 59.28 41.52 65.52C39.12 71.6 37.92 78.16 37.92 85.2C37.92 92.4 39.12 99.12 41.52 105.36C44.08 111.6 47.6 117.04 52.08 121.68C56.56 126.16 61.84 129.76 67.92 132.48C74.16 135.04 80.88 136.32 88.08 136.32C98.16 136.32 106.96 133.92 114.48 129.12C122.16 124.32 128.32 117.84 132.96 109.68L162 129.84C154 142.8 143.92 152.96 131.76 160.32C119.76 167.52 105.36 171.12 88.56 171.12C75.92 171.12 64.16 168.96 53.28 164.64C42.56 160.16 33.2 154.08 25.2 146.4C17.36 138.56 11.2 129.44 6.72 119.04C2.24 108.48 0 97.2 0 85.2C0 73.2 2.24 62.08 6.72 51.84C11.2 41.44 17.28 32.4 24.96 24.72C32.8 17.04 42.08 11.04 52.8 6.72001C63.52 2.24 75.12 0 87.6 0C103.92 0 118.32 3.36 130.8 10.08C143.28 16.8 153.44 27.12 161.28 41.04L131.76 61.44C126.96 53.44 120.88 46.96 113.52 42C106.32 37.04 97.44 34.56 86.88 34.56Z" fill="#5266EB"></path>
<path d="M231.06 73.68C226.42 73.68 222.1 74.56 218.1 76.32C214.26 78.08 210.9 80.48 208.02 83.52C205.14 86.4 202.82 89.92 201.06 94.08C199.46 98.08 198.66 102.32 198.66 106.8C198.66 111.44 199.46 115.76 201.06 119.76C202.82 123.76 205.14 127.28 208.02 130.32C210.9 133.36 214.26 135.76 218.1 137.52C222.1 139.12 226.42 139.92 231.06 139.92C235.86 139.92 240.26 139.12 244.26 137.52C248.42 135.76 252.02 133.36 255.06 130.32C258.1 127.28 260.42 123.76 262.02 119.76C263.78 115.76 264.66 111.44 264.66 106.8C264.66 102.32 263.78 98.08 262.02 94.08C260.26 89.92 257.86 86.4 254.82 83.52C251.78 80.48 248.18 78.08 244.02 76.32C240.02 74.56 235.7 73.68 231.06 73.68ZM264.18 158.64C259.86 162 254.5 164.64 248.1 166.56C241.86 168.48 235.22 169.44 228.18 169.44C219.7 169.44 211.7 167.84 204.18 164.64C196.66 161.44 190.1 157.04 184.5 151.44C178.9 145.84 174.42 139.28 171.06 131.76C167.7 124.08 166.02 115.76 166.02 106.8C166.02 98 167.7 89.76 171.06 82.08C174.42 74.24 178.9 67.52 184.5 61.92C190.1 56.16 196.66 51.68 204.18 48.48C211.7 45.12 219.7 43.44 228.18 43.44C235.22 43.44 241.86 44.48 248.1 46.56C254.5 48.48 259.86 51.12 264.18 54.48V44.64H297.54V167.76H264.18V158.64Z" fill="#5266EB"></path>
<path d="M385.554 44.64V74.4H355.314V123.84C355.314 129.44 356.594 133.44 359.154 135.84C361.874 138.08 366.034 139.2 371.634 139.2H385.554V167.76H369.234C352.754 167.76 340.754 164.24 333.234 157.2C325.714 150 321.954 139.44 321.954 125.52V74.4H304.194V44.64H321.954V12.96H355.314V44.64H385.554Z" fill="#5266EB"></path>
<path d="M447.632 73.68C442.992 73.68 438.672 74.56 434.672 76.32C430.832 78.08 427.472 80.48 424.592 83.52C421.712 86.4 419.392 89.92 417.632 94.08C416.032 98.08 415.232 102.32 415.232 106.8C415.232 111.44 416.032 115.76 417.632 119.76C419.392 123.76 421.712 127.28 424.592 130.32C427.472 133.36 430.832 135.76 434.672 137.52C438.672 139.12 442.992 139.92 447.632 139.92C452.432 139.92 456.832 139.12 460.832 137.52C464.992 135.76 468.592 133.36 471.632 130.32C474.672 127.28 476.992 123.76 478.592 119.76C480.352 115.76 481.232 111.44 481.232 106.8C481.232 102.32 480.352 98.08 478.592 94.08C476.832 89.92 474.432 86.4 471.392 83.52C468.352 80.48 464.752 78.08 460.592 76.32C456.592 74.56 452.272 73.68 447.632 73.68ZM480.752 158.64C476.432 162 471.072 164.64 464.672 166.56C458.432 168.48 451.792 169.44 444.752 169.44C436.272 169.44 428.272 167.84 420.752 164.64C413.232 161.44 406.672 157.04 401.072 151.44C395.472 145.84 390.992 139.28 387.632 131.76C384.272 124.08 382.592 115.76 382.592 106.8C382.592 98 384.272 89.76 387.632 82.08C390.992 74.24 395.472 67.52 401.072 61.92C406.672 56.16 413.232 51.68 420.752 48.48C428.272 45.12 436.272 43.44 444.752 43.44C451.792 43.44 458.432 44.48 464.672 46.56C471.072 48.48 476.432 51.12 480.752 54.48V44.64H514.112V167.76H480.752V158.64Z" fill="#5266EB"></path>
<path d="M522.686 167.76V3.36H556.286V167.76H522.686Z" fill="#5266EB"></path>
<path d="M642.036 163.44C639.156 171.6 635.956 178.64 632.436 184.56C629.076 190.48 625.156 195.36 620.676 199.2C616.196 203.04 611.076 205.84 605.316 207.6C599.556 209.36 592.916 210.24 585.396 210.24H573.396V180.24H583.476C589.076 180.24 593.716 178.8 597.396 175.92C601.076 173.04 604.036 169.2 606.276 164.4L560.436 44.64H598.596L623.796 120.48L648.756 44.64H683.316L642.036 163.44Z" fill="#5266EB"></path>
<path d="M710.944 129.12C710.944 131.04 711.264 132.96 711.904 134.88C712.704 136.8 713.984 138.56 715.744 140.16C717.504 141.76 719.824 143.12 722.704 144.24C725.584 145.36 729.264 145.92 733.744 145.92C739.984 145.92 744.544 144.72 747.424 142.32C750.464 139.92 751.984 137.28 751.984 134.4C751.984 132.48 751.424 130.88 750.304 129.6C749.184 128.16 747.664 127.04 745.744 126.24C743.824 125.44 741.504 124.8 738.784 124.32C736.224 123.68 733.424 123.12 730.384 122.64C724.944 121.68 719.184 120.64 713.104 119.52C707.184 118.4 701.664 116.56 696.544 114C691.584 111.28 687.424 107.52 684.064 102.72C680.864 97.92 679.264 91.36 679.264 83.04C679.264 77.44 680.464 72.24 682.864 67.44C685.264 62.64 688.624 58.48 692.944 54.96C697.424 51.28 702.784 48.4 709.024 46.32C715.264 44.24 722.304 43.2 730.144 43.2C745.824 43.2 758.304 46.88 767.584 54.24C776.864 61.6 781.984 71.52 782.944 84H749.584C749.424 81.76 749.024 79.68 748.384 77.76C747.904 75.84 746.944 74.24 745.504 72.96C744.064 71.52 742.144 70.4 739.744 69.6C737.344 68.8 734.304 68.4 730.624 68.4C725.824 68.4 721.664 69.28 718.144 71.04C714.784 72.64 713.104 75.36 713.104 79.2C713.104 81.44 713.824 83.36 715.264 84.96C716.704 86.4 718.704 87.6 721.264 88.56C723.824 89.52 726.784 90.32 730.144 90.96C733.504 91.6 737.024 92.24 740.704 92.88C745.984 93.84 751.344 94.96 756.784 96.24C762.384 97.36 767.424 99.2 771.904 101.76C776.544 104.32 780.304 107.76 783.184 112.08C786.064 116.24 787.504 121.76 787.504 128.64C787.504 136 786.064 142.32 783.184 147.6C780.304 152.72 776.384 156.96 771.424 160.32C766.464 163.68 760.544 166.16 753.664 167.76C746.944 169.36 739.744 170.16 732.064 170.16C723.584 170.16 715.984 169.12 709.264 167.04C702.704 164.96 697.024 162.08 692.224 158.4C687.584 154.72 683.904 150.4 681.184 145.44C678.624 140.48 677.264 135.04 677.104 129.12H710.944Z" fill="#5266EB"></path>
<path d="M868.273 44.64V74.4H838.033V123.84C838.033 129.44 839.313 133.44 841.873 135.84C844.593 138.08 848.753 139.2 854.353 139.2H868.273V167.76H851.953C835.473 167.76 823.473 164.24 815.953 157.2C808.433 150 804.673 139.44 804.673 125.52V74.4H786.913V44.64H804.673V12.96H838.033V44.64H868.273Z" fill="#5266EB"></path>
</svg>