<svg width="726" height="192" viewBox="0 0 726 192" fill="none" xmlns="http://www.w3.org/2000/svg">
<path d="M125.635 49.1582C122.272 44.5255 118.067 41.008 113.021 38.6059C107.976 36.2038 102.341 35.0027 96.1186 35.0027C93.2594 35.0027 90.2321 35.4316 87.0365 36.2895C83.841 36.9759 80.8977 38.2627 78.2067 40.1501C75.6839 41.866 73.4975 44.0965 71.6474 46.8418C69.9656 49.5871 69.1246 52.933 69.1246 56.8794C69.1246 62.0268 71.0588 66.1448 74.9271 69.2332C78.9636 72.1501 84.5137 74.8954 91.5775 77.4692C99.3141 80.2145 106.21 83.3029 112.264 86.7346C118.319 89.9946 123.449 93.7694 127.654 98.059C131.858 102.349 135.054 107.239 137.24 112.729C139.427 118.048 140.52 124.139 140.52 131.003C140.52 141.984 138.249 151.335 133.708 159.056C129.335 166.777 123.617 173.126 116.553 178.102C109.489 182.906 101.585 186.424 92.8389 188.654C84.0933 190.885 75.4316 192 66.8541 192C60.463 192 54.072 191.399 47.6809 190.198C41.2898 188.997 35.151 187.281 29.2645 185.051C23.3779 182.649 17.9119 179.646 12.8663 176.043C7.82067 172.44 3.53192 168.322 0 163.689L31.0304 137.952C34.5623 143.442 39.7761 147.903 46.6718 151.335C53.5674 154.767 60.5471 156.483 67.611 156.483C71.3111 156.483 74.843 156.139 78.2067 155.453C81.7386 154.595 84.8501 153.308 87.5411 151.592C90.2321 149.705 92.3344 147.389 93.8481 144.643C95.5299 141.727 96.3709 138.295 96.3709 134.349C96.3709 128 93.8481 123.024 88.8025 119.421C83.7569 115.646 77.0294 112.3 68.6201 109.383C62.7336 107.324 57.1834 105.008 51.9696 102.434C46.924 99.8606 42.4671 96.6863 38.5988 92.9115C34.8987 89.1367 31.8713 84.6756 29.5167 79.5282C27.3303 74.2091 26.2371 67.8606 26.2371 60.4826C26.2371 51.2172 28.0871 42.8954 31.7872 35.5174C35.6555 27.9678 40.8693 21.6193 47.4286 16.4719C53.9879 11.1528 61.6404 7.12065 70.3861 4.37534C79.1317 1.45845 88.4661 0 98.3891 0C103.603 0 108.901 0.514749 114.283 1.54425C119.665 2.57373 124.794 4.11797 129.672 6.17696C134.717 8.06435 139.343 10.4665 143.547 13.3834C147.752 16.3003 151.284 19.6461 154.143 23.4209L125.635 49.1582Z" fill="#0F2034"></path>
<path d="M241.528 41.6944L216.3 187.11H174.422L199.398 41.6944H149.446L156.005 4.89009H296.778L290.471 41.6944H241.528Z" fill="#0F2034"></path>
<path d="M377.296 187.11L371.241 150.82H302.369L280.925 187.11H232.992L346.77 4.89009H387.64L421.445 187.11H377.296ZM357.618 51.7319L320.281 116.332H366.953L357.618 51.7319Z" fill="#0F2034"></path>
<path d="M575.074 187.11H527.645L497.624 113.759H480.469L468.359 187.11H427.49L459.025 4.89009H520.077C539.754 4.89009 555.059 9.17963 565.992 17.7587C577.092 26.1662 582.642 38.0054 582.642 53.2761C582.642 68.0322 578.69 80.1287 570.785 89.5657C562.88 98.8311 552.2 105.18 538.745 108.611L575.074 187.11ZM504.688 83.1314C515.956 83.1314 524.702 81.244 530.925 77.4692C537.148 73.6944 540.259 67.689 540.259 59.4531C540.259 51.9035 537.652 46.756 532.438 44.0107C527.225 41.2654 520.245 39.8928 511.499 39.8928H493.587L486.019 83.1314H504.688Z" fill="#0F2034"></path>
<path d="M697.492 49.1582C694.129 44.5255 689.924 41.008 684.878 38.6059C679.833 36.2038 674.199 35.0027 667.976 35.0027C665.116 35.0027 662.089 35.4316 658.894 36.2895C655.698 36.9759 652.755 38.2627 650.064 40.1501C647.541 41.866 645.355 44.0965 643.505 46.8418C641.823 49.5871 640.982 52.933 640.982 56.8794C640.982 62.0268 642.916 66.1448 646.784 69.2332C650.821 72.1501 656.371 74.8954 663.435 77.4692C671.171 80.2145 678.067 83.3029 684.122 86.7346C690.176 89.9946 695.306 93.7694 699.511 98.059C703.715 102.349 706.911 107.239 709.097 112.729C711.284 118.048 712.377 124.139 712.377 131.003C712.377 141.984 710.106 151.335 705.565 159.056C701.192 166.777 695.474 173.126 688.41 178.102C681.346 182.906 673.442 186.424 664.696 188.654C655.95 190.885 647.289 192 638.711 192C632.32 192 625.929 191.399 619.538 190.198C613.147 188.997 607.008 187.281 601.122 185.051C595.235 182.649 589.769 179.646 584.723 176.043C579.678 172.44 575.389 168.322 571.857 163.689L602.887 137.952C606.419 143.442 611.633 147.903 618.529 151.335C625.424 154.767 632.404 156.483 639.468 156.483C643.168 156.483 646.7 156.139 650.064 155.453C653.596 154.595 656.707 153.308 659.398 151.592C662.089 149.705 664.191 147.389 665.705 144.643C667.387 141.727 668.228 138.295 668.228 134.349C668.228 128 665.705 123.024 660.66 119.421C655.614 115.646 648.886 112.3 640.477 109.383C634.591 107.324 629.04 105.008 623.827 102.434C618.781 99.8606 614.324 96.6863 610.456 92.9115C606.756 89.1367 603.728 84.6756 601.374 79.5282C599.187 74.2091 598.094 67.8606 598.094 60.4826C598.094 51.2172 599.944 42.8954 603.644 35.5174C607.513 27.9678 612.726 21.6193 619.286 16.4719C625.845 11.1528 633.497 7.12065 642.243 4.37534C650.989 1.45845 660.323 0 670.246 0C675.46 0 680.758 0.514749 686.14 1.54425C691.522 2.57373 696.651 4.11797 701.529 6.17696C706.574 8.06435 711.2 10.4665 715.404 13.3834C719.609 16.3003 723.141 19.6461 726 23.4209L697.492 49.1582Z" fill="#0F2034"></path>
</svg>